<!DOCTYPE svg PUBLIC "-//W3C//DTD SVG 1.1//EN" "http://www.w3.org/Graphics/SVG/1.1/DTD/svg11.dtd">
<!-- Uploaded to: SVG Repo, www.svgrepo.com, Transformed by: SVG Repo Mixer Tools -->
<svg height="800px" width="800px" version="1.1" id="Layer_1" xmlns="http://www.w3.org/2000/svg" xmlns:xlink="http://www.w3.org/1999/xlink" viewBox="0 0 496 496" xml:space="preserve" fill="#000000">
<g id="SVGRepo_bgCarrier" stroke-width="0"/>
<g id="SVGRepo_tracerCarrier" stroke-linecap="round" stroke-linejoin="round"/>
<g id="SVGRepo_iconCarrier"> <path style="fill:#ff0000;" d="M496,320.8c0,96.8-78.4,175.2-175.2,175.2H175.2C78.4,496,0,417.6,0,320.8V175.2 C0,78.4,78.4,0,175.2,0h145.6C417.6,0,496,78.4,496,175.2V320.8z"/> <path style="fill:#de1717;" d="M0,175.2C0,78.4,78.4,0,175.2,0h145.6C417.6,0,496,78.4,496,175.2v145.6 c0,96.8-78.4,175.2-175.2,175.2"/> <g> <path style="fill:#ff0000;" d="M320.8,0C417.6,0,496,78.4,496,175.2v145.6c0,96.8-78.4,175.2-175.2,175.2"/> <path style="fill:#ff0000;" d="M303.2,274.4c-4.8-4.8-12-4.8-16.8,0l-27.2,27.2V192.8c0-6.4-5.6-12-12-12s-12,4.8-12,12v108 l-26.4-26.4c-4.8-4.8-12-4.8-16.8,0s-4.8,12,0,16.8l46.4,46.4c2.4,2.4,5.6,3.2,8,3.2s5.6-0.8,8-3.2l46.4-46.4 C307.2,286.4,307.2,278.4,303.2,274.4z"/> </g> <path style="fill:#FFFFFF;" d="M303.2,260.8c-4.8-4.8-12-4.8-16.8,0L260,288V180c0-6.4-5.6-12-12-12s-12,4.8-12,12v108l-26.4-26.4 c-4.8-4.8-12-4.8-16.8,0s-4.8,12,0,16.8l46.4,46.4c2.4,2.4,5.6,3.2,8,3.2s5.6-0.8,8-3.2l46.4-46.4 C307.2,272.8,307.2,265.6,303.2,260.8z"/> </g>
</svg>